<svg xmlns="http://www.w3.org/2000/svg" viewBox="0 0 100 100" width="100%" height="100%">
  <defs>
    <filter id="drop-shadow" x="-20%" y="-20%" width="140%" height="140%">
      <feDropShadow dx="0" dy="3" stdDeviation="2" flood-color="#000000" flood-opacity="0.5"/>
    </filter>
    
    <linearGradient id="shield-grad" x1="0%" y1="0%" x2="100%" y2="100%">
      <stop offset="0%" stop-color="#1C3D7A" />
      <stop offset="50%" stop-color="#0B2155" />
      <stop offset="100%" stop-color="#05112C" />
    </linearGradient>

    <linearGradient id="padlock-grad" x1="0%" y1="0%" x2="0%" y2="100%">
      <stop offset="0%" stop-color="#FFFFFF" />
      <stop offset="40%" stop-color="#E8EAEF" />
      <stop offset="100%" stop-color="#A5AEBE" />
    </linearGradient>
  </defs>

  <path d="M 50 10 Q 70 20 90 16 Q 92 60 50 95 Q 8 60 10 16 Q 30 20 50 10 Z" fill="url(#shield-grad)" filter="url(#drop-shadow)"/>
  
  <path d="M 50 12 Q 68 21 86 18 Q 88 58 50 91 Q 12 58 14 18 Q 32 21 50 12 Z" fill="none" stroke="#294E8F" stroke-width="1.5"/>

  <rect x="34" y="46" width="32" height="24" rx="4.5" fill="url(#padlock-grad)" filter="url(#drop-shadow)"/>

  <path d="M 40 46 V 34 A 10 10 0 0 1 60 34 V 46" fill="none" stroke="url(#padlock-grad)" stroke-width="4.5" filter="url(#drop-shadow)"/>

  <circle cx="50" cy="53" r="3.5" fill="#05112C"/>
  <path d="M 47.5 54 L 45 64 H 55 L 52.5 54 Z" fill="#05112C"/>
</svg>
